<?xml version="1.0" encoding="utf-8"?>
<!-- Generator: Adobe Illustrator 22.1.0, SVG Export Plug-In . SVG Version: 6.00 Build 0)  -->
<svg version="1.1" id="レイヤー_1" xmlns="http://www.w3.org/2000/svg" xmlns:xlink="http://www.w3.org/1999/xlink" x="0px"
	 y="0px" viewBox="0 0 300 300" style="enable-background:new 0 0 300 300;" xml:space="preserve">
<path d="M226.095,74.689c-5.767-0.593-10.922,3.571-11.514,9.34c-0.013,0.111-1.633,11.125-7.142,11.694
	c-5.818,0.603-43.898,0.534-80.42,0.267V84.668c0-12.43-7.769-23.86-19.792-29.12c-8.373-3.664-20.163-2.544-28.668,2.721
	c-8.507,5.265-13.488,14.099-14.027,24.874c-1.084,21.691,14.657,31.87,25.502,33.419c0.454,0.065,0.911,0.1,1.37,0.105
	c2.105,0.023,7.383,0.08,14.615,0.147v36.854h-11c-5.799,0-10.5,4.701-10.5,10.5s4.701,10.5,10.5,10.5h11v25.513
	c0,1.746,0.045,3.499,0.089,5.193c0.185,7.166,0.359,13.935-2.884,17.882c-0.697,0.849-2.554,3.103-8.375,2.072
	c-5.712-1.007-11.159,2.8-12.169,8.511c-1.01,5.71,2.8,11.158,8.51,12.169c2.216,0.392,4.375,0.585,6.466,0.585
	c8.813,0,16.405-3.444,21.796-10.007c8.21-9.995,7.899-22.06,7.65-31.753c-0.041-1.573-0.082-3.13-0.082-4.652v-25.513h64.5
	c5.799,0,10.5-4.701,10.5-10.5s-4.701-10.5-10.5-10.5h-64.5v-36.678c32.221,0.238,75.133,0.392,82.58-0.378
	c18.151-1.878,24.799-19.976,25.865-30.373C236.057,80.471,231.863,75.281,226.095,74.689z M92.614,95.68
	c-3.078-0.744-7.52-3.242-7.107-11.487c0.255-5.111,2.465-7.051,4.105-8.066c3.567-2.208,8.026-1.852,9.2-1.338
	c4.379,1.916,7.208,5.794,7.208,9.88v11.147C101.376,95.771,96.881,95.726,92.614,95.68z"/>
</svg>
